<svg width="12" height="12" viewBox="0 0 12 12" fill="none" xmlns="http://www.w3.org/2000/svg">
<path d="M11.2553 2.23928C11.6847 1.79327 11.6847 1.06896 11.2553 0.622956C10.8258 0.176951 10.1283 0.176951 9.6988 0.622956L6.08081 4.38367L2.45938 0.626524C2.0299 0.180519 1.33241 0.180519 0.902925 0.626524C0.473439 1.07253 0.473439 1.79684 0.902925 2.24285L4.52435 5.99999L0.906361 9.7607C0.476875 10.2067 0.476875 10.931 0.906361 11.377C1.33585 11.823 2.03333 11.823 2.46282 11.377L6.08081 7.61631L9.70224 11.3735C10.1317 11.8195 10.8292 11.8195 11.2587 11.3735C11.6882 10.9275 11.6882 10.2031 11.2587 9.75713L7.63727 5.99999L11.2553 2.23928Z" fill="white"/>
</svg>